# xmcd
#
# Track frame offsets:
#	150
#	16380
#	29459
#	50581
#	67020
#	85653
#	101277
#	114638
#	129774
#	147046
#	164831
#	180935
#	197196
#	213859
#	230012
#	249178
#
# Disc length: 3587
#
# Revision: 1
# Processed by: cddbd v1.5.1PL0 Copyright (c) Steve Scherf et al.
# Submitted via: dBpowerAMP V4.0
# Normalized: r0:TRMNUM
#
DISCID=d40e0110
DTITLE=Shania Twain - Come on Over
DYEAR=1900
DGENRE=Country
TTITLE0=You're Still The One
TTITLE1=When
TTITLE2=From This Moment On
TTITLE3=Black Eyes, Blue Tears
TTITLE4=I Won't Leave You Lonely
TTITLE5=I'm Holdin' On To Love ( To Save My Life)
TTITLE6=Come On Over
TTITLE7=You've Got A Way ( Notting Hill Remix)
TTITLE8=Whatever You Do! Don't!
TTITLE9=Man! I Feel Like A Woman!
TTITLE10=Love Gets Me Every Time
TTITLE11=Don't Be Stupid ( You Know I Love You)
TTITLE12=That Don't Impress Me Much ( UK Dance Mix)
TTITLE13=Honey, I'm Home
TTITLE14=If You Wanna touch Her, Ask!
TTITLE15=Rock This Country!
EXTD=My name is Tubbie
EXTT0=
EXTT1=
EXTT2=
EXTT3=
EXTT4=
EXTT5=
EXTT6=
EXTT7=
EXTT8=
EXTT9=
EXTT10=
EXTT11=
EXTT12=
EXTT13=
EXTT14=
EXTT15=
PLAYORDER=
